<svg viewBox="0 0 64 64" xmlns="http://www.w3.org/2000/svg"><circle cx="15" cy="9" r="2" fill="#003697" class="fill-373737"></circle><circle cx="49" cy="55" r="2" fill="#003697" class="fill-373737"></circle><circle cx="60" cy="17" r="1" fill="#003697" class="fill-373737"></circle><circle cx="4" cy="47" r="1" fill="#003697" class="fill-373737"></circle><circle cx="25" cy="9" r="1" fill="#003697" class="fill-373737"></circle><circle cx="39" cy="55" r="1" fill="#003697" class="fill-373737"></circle><path d="M34.121 29.869a3.007 3.007 0 0 0-4.242 4.263 3.062 3.062 0 0 0 4.242 0 3.024 3.024 0 0 0 0-4.263Z" fill="#003697" class="fill-373737"></path><path d="M60 22.145a1 1 0 0 0-1 1c0 12.387-8.864 26.188-21.583 26.188a17.874 17.874 0 0 1-13.089-5.648 12.03 12.03 0 0 1-3.086-9.647 10.153 10.153 0 0 1 3.514-7.03 7.64 7.64 0 0 1 5.701-1.516 4.338 4.338 0 0 1 3.002 1.498 2.358 2.358 0 0 1 .173.303 4.956 4.956 0 0 1 1.903 1.172 5.014 5.014 0 0 1 .325.394 4.37 4.37 0 0 0-.78-3.042 6.222 6.222 0 0 0-4.37-2.31 9.63 9.63 0 0 0-7.183 1.923 12.093 12.093 0 0 0-4.27 8.366 13.971 13.971 0 0 0 3.574 11.214 19.927 19.927 0 0 0 14.586 6.323C51.315 51.333 61 36.478 61 23.145a1 1 0 0 0-1-1Z" fill="#003697" class="fill-373737"></path><path d="M23.145 3a1 1 0 0 0 0 2c12.387 0 26.188 8.864 26.188 21.583a17.874 17.874 0 0 1-5.648 13.089 12.05 12.05 0 0 1-9.647 3.086 10.153 10.153 0 0 1-7.03-3.514 7.636 7.636 0 0 1-1.516-5.701 4.338 4.338 0 0 1 1.498-3.002 2.322 2.322 0 0 1 .303-.173 4.197 4.197 0 0 1 1.567-2.228 4.358 4.358 0 0 0-3.043.781 6.222 6.222 0 0 0-2.31 4.37 9.62 9.62 0 0 0 1.923 7.182 12.093 12.093 0 0 0 8.365 4.27 14.738 14.738 0 0 0 1.785.11 14.019 14.019 0 0 0 9.43-3.684 19.927 19.927 0 0 0 6.323-14.586C51.333 12.686 36.478 3 23.145 3Z" fill="#003697" class="fill-373737"></path><path d="M41.169 18.99a19.927 19.927 0 0 0-14.586-6.323C12.686 12.667 3 27.523 3 40.855a1 1 0 0 0 2 0c0-12.387 8.864-26.188 21.583-26.188a17.874 17.874 0 0 1 13.089 5.648 12.03 12.03 0 0 1 3.086 9.647 10.153 10.153 0 0 1-3.514 7.03 7.613 7.613 0 0 1-5.701 1.516 4.338 4.338 0 0 1-3.002-1.498 2.358 2.358 0 0 1-.173-.303 4.956 4.956 0 0 1-1.903-1.172 5.038 5.038 0 0 1-.325-.394 4.37 4.37 0 0 0 .78 3.042 6.222 6.222 0 0 0 4.37 2.31 9.643 9.643 0 0 0 7.183-1.923 12.093 12.093 0 0 0 4.27-8.366 13.971 13.971 0 0 0-3.574-11.214Z" fill="#003697" class="fill-373737"></path><path d="M40.855 59c-12.387 0-26.188-8.864-26.188-21.583a17.874 17.874 0 0 1 5.648-13.089 12.06 12.06 0 0 1 9.647-3.086 10.153 10.153 0 0 1 7.03 3.514 7.636 7.636 0 0 1 1.516 5.701 4.338 4.338 0 0 1-1.498 3.002 2.345 2.345 0 0 1-.303.174 4.193 4.193 0 0 1-1.567 2.227 4.376 4.376 0 0 0 3.042-.78 6.222 6.222 0 0 0 2.31-4.37 9.62 9.62 0 0 0-1.923-7.182 12.093 12.093 0 0 0-8.365-4.27A13.965 13.965 0 0 0 18.99 22.83a19.927 19.927 0 0 0-6.323 14.586C12.667 51.315 27.523 61 40.855 61a1 1 0 0 0 0-2Z" fill="#003697" class="fill-373737"></path></svg>