<?xml version="1.0" ?><svg id="main" viewBox="0 0 160 160" xmlns="http://www.w3.org/2000/svg"><defs><style>.cls-1{fill:#2b9caf;}.cls-1,.cls-2{stroke:#2f3d3f;stroke-linecap:round;stroke-linejoin:round;stroke-width:4px;}.cls-2{fill:none;}</style></defs><title/><polygon class="cls-1" points="89.31 56 80 65.31 70.69 56 69.61 56.45 69.61 69.61 56.45 69.61 56 70.69 65.31 80 56 89.31 56.45 90.39 69.61 90.39 69.61 103.55 70.69 104 80 94.69 89.31 104 90.39 103.55 90.39 90.39 103.55 90.39 104 89.31 94.69 80 104 70.69 103.55 69.61 90.39 69.61 90.39 56.45 89.31 56"/><line class="cls-2" x1="30.53" x2="129.47" y1="129.47" y2="30.53"/><polyline class="cls-2" points="42.49 130.68 42.49 117.51 29.32 117.51"/><polyline class="cls-2" points="49.76 123.4 49.76 110.24 36.6 110.24"/><polyline class="cls-2" points="130.68 42.49 117.51 42.49 117.51 29.32"/><polyline class="cls-2" points="123.4 49.76 110.24 49.76 110.24 36.6"/><line class="cls-2" x1="10.03" x2="149.97" y1="80" y2="80"/><polyline class="cls-2" points="17.64 89.31 26.95 80 17.64 70.69"/><polyline class="cls-2" points="27.93 89.31 37.24 80 27.93 70.69"/><polyline class="cls-2" points="142.36 89.31 133.05 80 142.36 70.69"/><polyline class="cls-2" points="132.07 89.31 122.76 80 132.07 70.69"/><line class="cls-2" x1="30.53" x2="129.47" y1="30.53" y2="129.47"/><polyline class="cls-2" points="29.32 42.49 42.49 42.49 42.49 29.32"/><polyline class="cls-2" points="36.6 49.76 49.76 49.76 49.76 36.6"/><polyline class="cls-2" points="117.51 130.68 117.51 117.51 130.68 117.51"/><polyline class="cls-2" points="110.24 123.4 110.24 110.24 123.4 110.24"/><line class="cls-2" x1="80" x2="80" y1="10.03" y2="149.97"/><polyline class="cls-2" points="70.69 17.64 80 26.95 89.31 17.64"/><polyline class="cls-2" points="70.69 27.93 80 37.24 89.31 27.93"/><polyline class="cls-2" points="70.69 142.36 80 133.05 89.31 142.36"/><polyline class="cls-2" points="70.69 132.07 80 122.76 89.31 132.07"/><polyline class="cls-2" points="62.34 110.83 62.34 97.66 49.17 97.66"/><polyline class="cls-2" points="69.61 103.55 69.61 90.39 56.45 90.39"/><polyline class="cls-2" points="110.83 62.34 97.66 62.34 97.66 49.17"/><polyline class="cls-2" points="103.55 69.61 90.39 69.61 90.39 56.45"/><polyline class="cls-2" points="45.71 89.31 55.02 80 45.71 70.69"/><polyline class="cls-2" points="56 89.31 65.31 80 56 70.69"/><polyline class="cls-2" points="114.29 89.31 104.98 80 114.29 70.69"/><polyline class="cls-2" points="104 89.31 94.69 80 104 70.69"/><polyline class="cls-2" points="49.17 62.34 62.34 62.34 62.34 49.17"/><polyline class="cls-2" points="56.45 69.61 69.61 69.61 69.61 56.45"/><polyline class="cls-2" points="97.66 110.83 97.66 97.66 110.83 97.66"/><polyline class="cls-2" points="90.39 103.55 90.39 90.39 103.55 90.39"/><polyline class="cls-2" points="70.69 45.71 80 55.02 89.31 45.71"/><polyline class="cls-2" points="70.69 56 80 65.31 89.31 56"/><polyline class="cls-2" points="70.69 114.29 80 104.98 89.31 114.29"/><polyline class="cls-2" points="70.69 104 80 94.69 89.31 104"/></svg>